<mxfile host="app.diagrams.net" modified="2024-06-21T18:21:12.433Z" agent="Mozilla/5.0 (Macintosh; Intel Mac OS X 10.15; rv:127.0) Gecko/20100101 Firefox/127.0" etag="r9bF1b9tVjrDXjEjCVM7" version="24.6.0" type="device">
  <diagram name="Page-1" id="tF-tItF-Gf_7DqpdMi4o">
    <mxGraphModel dx="2074" dy="1129" grid="1" gridSize="10" guides="1" tooltips="1" connect="1" arrows="1" fold="1" page="1" pageScale="1" pageWidth="850" pageHeight="1100" math="0" shadow="0">
      <root>
        <mxCell id="0" />
        <mxCell id="1" parent="0" />
        <mxCell id="ba7aPMstpUIJZf1xL_y9-1" value="BOARD" style="rounded=0;whiteSpace=wrap;html=1;" vertex="1" parent="1">
          <mxGeometry x="160" y="290" width="60" height="60" as="geometry" />
        </mxCell>
        <mxCell id="ba7aPMstpUIJZf1xL_y9-2" value="BRAND" style="rounded=0;whiteSpace=wrap;html=1;" vertex="1" parent="1">
          <mxGeometry x="230" y="290" width="60" height="60" as="geometry" />
        </mxCell>
        <mxCell id="ba7aPMstpUIJZf1xL_y9-3" value="CPU_ABI" style="rounded=0;whiteSpace=wrap;html=1;" vertex="1" parent="1">
          <mxGeometry x="300" y="290" width="60" height="60" as="geometry" />
        </mxCell>
        <mxCell id="ba7aPMstpUIJZf1xL_y9-4" value="MANUFACTURER" style="rounded=0;whiteSpace=wrap;html=1;" vertex="1" parent="1">
          <mxGeometry x="440" y="290" width="110" height="60" as="geometry" />
        </mxCell>
        <mxCell id="ba7aPMstpUIJZf1xL_y9-5" value="DEVICE" style="rounded=0;whiteSpace=wrap;html=1;" vertex="1" parent="1">
          <mxGeometry x="370" y="290" width="60" height="60" as="geometry" />
        </mxCell>
        <mxCell id="ba7aPMstpUIJZf1xL_y9-6" value="MODEL" style="rounded=0;whiteSpace=wrap;html=1;" vertex="1" parent="1">
          <mxGeometry x="560" y="290" width="60" height="60" as="geometry" />
        </mxCell>
        <mxCell id="ba7aPMstpUIJZf1xL_y9-7" value="ID" style="rounded=0;whiteSpace=wrap;html=1;" vertex="1" parent="1">
          <mxGeometry x="760" y="290" width="30" height="60" as="geometry" />
        </mxCell>
        <mxCell id="ba7aPMstpUIJZf1xL_y9-8" value="HOST" style="rounded=0;whiteSpace=wrap;html=1;" vertex="1" parent="1">
          <mxGeometry x="700" y="290" width="50" height="60" as="geometry" />
        </mxCell>
        <mxCell id="ba7aPMstpUIJZf1xL_y9-9" value="DISPLAY" style="rounded=0;whiteSpace=wrap;html=1;" vertex="1" parent="1">
          <mxGeometry x="630" y="290" width="60" height="60" as="geometry" />
        </mxCell>
        <mxCell id="ba7aPMstpUIJZf1xL_y9-10" value="PRODUCT" style="rounded=0;whiteSpace=wrap;html=1;" vertex="1" parent="1">
          <mxGeometry x="800" y="290" width="70" height="60" as="geometry" />
        </mxCell>
        <mxCell id="ba7aPMstpUIJZf1xL_y9-11" value="TAGS" style="rounded=0;whiteSpace=wrap;html=1;" vertex="1" parent="1">
          <mxGeometry x="880" y="290" width="40" height="60" as="geometry" />
        </mxCell>
        <mxCell id="ba7aPMstpUIJZf1xL_y9-12" value="TYPE" style="rounded=0;whiteSpace=wrap;html=1;" vertex="1" parent="1">
          <mxGeometry x="990" y="290" width="40" height="60" as="geometry" />
        </mxCell>
        <mxCell id="ba7aPMstpUIJZf1xL_y9-13" value="USER" style="rounded=0;whiteSpace=wrap;html=1;" vertex="1" parent="1">
          <mxGeometry x="930" y="290" width="50" height="60" as="geometry" />
        </mxCell>
        <mxCell id="ba7aPMstpUIJZf1xL_y9-15" value="" style="verticalLabelPosition=bottom;shadow=0;dashed=0;align=center;html=1;verticalAlign=top;strokeWidth=1;shape=mxgraph.mockup.markup.curlyBrace;whiteSpace=wrap;strokeColor=#999999;rotation=-180;" vertex="1" parent="1">
          <mxGeometry x="150" y="350" width="890" height="80" as="geometry" />
        </mxCell>
        <mxCell id="ba7aPMstpUIJZf1xL_y9-16" value=".length( ) % 10" style="text;html=1;align=center;verticalAlign=middle;whiteSpace=wrap;rounded=0;" vertex="1" parent="1">
          <mxGeometry x="500" y="430" width="180" height="30" as="geometry" />
        </mxCell>
        <mxCell id="ba7aPMstpUIJZf1xL_y9-17" value="BOARD" style="rounded=0;whiteSpace=wrap;html=1;" vertex="1" parent="1">
          <mxGeometry x="280" y="580" width="60" height="60" as="geometry" />
        </mxCell>
        <mxCell id="ba7aPMstpUIJZf1xL_y9-18" value="" style="rhombus;whiteSpace=wrap;html=1;rotation=90;" vertex="1" parent="1">
          <mxGeometry x="175" y="460" width="50" height="80" as="geometry" />
        </mxCell>
        <mxCell id="ba7aPMstpUIJZf1xL_y9-19" value="Android 8.0" style="text;html=1;align=center;verticalAlign=middle;whiteSpace=wrap;rounded=0;" vertex="1" parent="1">
          <mxGeometry x="110" y="480" width="180" height="40" as="geometry" />
        </mxCell>
        <mxCell id="ba7aPMstpUIJZf1xL_y9-20" value="StringBuilder" style="text;html=1;align=center;verticalAlign=middle;whiteSpace=wrap;rounded=0;" vertex="1" parent="1">
          <mxGeometry x="560" y="550" width="60" height="30" as="geometry" />
        </mxCell>
        <mxCell id="ba7aPMstpUIJZf1xL_y9-21" value="" style="endArrow=classic;html=1;rounded=0;entryX=0;entryY=0;entryDx=0;entryDy=0;" edge="1" parent="1" target="ba7aPMstpUIJZf1xL_y9-17">
          <mxGeometry width="50" height="50" relative="1" as="geometry">
            <mxPoint x="200" y="530" as="sourcePoint" />
            <mxPoint x="10" y="360" as="targetPoint" />
          </mxGeometry>
        </mxCell>
        <mxCell id="ba7aPMstpUIJZf1xL_y9-22" value="" style="endArrow=classic;html=1;rounded=0;entryX=1;entryY=0;entryDx=0;entryDy=0;" edge="1" parent="1" target="ba7aPMstpUIJZf1xL_y9-23">
          <mxGeometry width="50" height="50" relative="1" as="geometry">
            <mxPoint x="200" y="530" as="sourcePoint" />
            <mxPoint x="90" y="580" as="targetPoint" />
          </mxGeometry>
        </mxCell>
        <mxCell id="ba7aPMstpUIJZf1xL_y9-23" value="android_id" style="rounded=0;whiteSpace=wrap;html=1;" vertex="1" parent="1">
          <mxGeometry x="60" y="580" width="60" height="60" as="geometry" />
        </mxCell>
        <mxCell id="ba7aPMstpUIJZf1xL_y9-24" value="UUID" style="rounded=0;whiteSpace=wrap;html=1;" vertex="1" parent="1">
          <mxGeometry x="350" y="770" width="120" height="60" as="geometry" />
        </mxCell>
        <mxCell id="ba7aPMstpUIJZf1xL_y9-26" value="" style="verticalLabelPosition=bottom;shadow=0;dashed=0;align=center;html=1;verticalAlign=top;strokeWidth=1;shape=mxgraph.mockup.markup.curlyBrace;whiteSpace=wrap;strokeColor=#999999;rotation=-180;" vertex="1" parent="1">
          <mxGeometry x="45" y="640" width="310" height="30" as="geometry" />
        </mxCell>
        <mxCell id="ba7aPMstpUIJZf1xL_y9-27" value="HashCode" style="text;html=1;align=center;verticalAlign=middle;whiteSpace=wrap;rounded=0;" vertex="1" parent="1">
          <mxGeometry x="175" y="675" width="60" height="30" as="geometry" />
        </mxCell>
        <mxCell id="ba7aPMstpUIJZf1xL_y9-29" value="HashCode" style="text;html=1;align=center;verticalAlign=middle;whiteSpace=wrap;rounded=0;" vertex="1" parent="1">
          <mxGeometry x="560" y="675" width="60" height="30" as="geometry" />
        </mxCell>
        <mxCell id="ba7aPMstpUIJZf1xL_y9-31" value="" style="endArrow=classic;html=1;rounded=0;entryX=0.5;entryY=0;entryDx=0;entryDy=0;exitX=0.5;exitY=1;exitDx=0;exitDy=0;" edge="1" parent="1" source="ba7aPMstpUIJZf1xL_y9-16" target="ba7aPMstpUIJZf1xL_y9-20">
          <mxGeometry width="50" height="50" relative="1" as="geometry">
            <mxPoint x="350" y="610" as="sourcePoint" />
            <mxPoint x="400" y="560" as="targetPoint" />
          </mxGeometry>
        </mxCell>
        <mxCell id="ba7aPMstpUIJZf1xL_y9-33" value="" style="endArrow=classic;html=1;rounded=0;exitX=0.5;exitY=1;exitDx=0;exitDy=0;entryX=0.5;entryY=0;entryDx=0;entryDy=0;" edge="1" parent="1" source="ba7aPMstpUIJZf1xL_y9-20" target="ba7aPMstpUIJZf1xL_y9-29">
          <mxGeometry width="50" height="50" relative="1" as="geometry">
            <mxPoint x="350" y="610" as="sourcePoint" />
            <mxPoint x="400" y="560" as="targetPoint" />
          </mxGeometry>
        </mxCell>
        <mxCell id="ba7aPMstpUIJZf1xL_y9-34" value="" style="verticalLabelPosition=bottom;shadow=0;dashed=0;align=center;html=1;verticalAlign=top;strokeWidth=1;shape=mxgraph.mockup.markup.curlyBrace;whiteSpace=wrap;strokeColor=#999999;rotation=-180;" vertex="1" parent="1">
          <mxGeometry x="160" y="700" width="500" height="50" as="geometry" />
        </mxCell>
        <mxCell id="ba7aPMstpUIJZf1xL_y9-36" value="ffffffff-b4db-0685-ffff-ffffd4b34620" style="text;html=1;align=center;verticalAlign=middle;whiteSpace=wrap;rounded=0;fontStyle=1;fontSize=13;" vertex="1" parent="1">
          <mxGeometry x="280" y="890" width="260" height="40" as="geometry" />
        </mxCell>
        <mxCell id="ba7aPMstpUIJZf1xL_y9-37" value="" style="endArrow=classic;html=1;rounded=0;exitX=0.5;exitY=1;exitDx=0;exitDy=0;" edge="1" parent="1" source="ba7aPMstpUIJZf1xL_y9-24">
          <mxGeometry width="50" height="50" relative="1" as="geometry">
            <mxPoint x="350" y="690" as="sourcePoint" />
            <mxPoint x="410" y="890" as="targetPoint" />
          </mxGeometry>
        </mxCell>
        <mxCell id="ba7aPMstpUIJZf1xL_y9-38" value="Datos de la clase BUILD" style="text;html=1;align=center;verticalAlign=middle;whiteSpace=wrap;rounded=0;fontSize=14;" vertex="1" parent="1">
          <mxGeometry x="465" y="200" width="250" height="50" as="geometry" />
        </mxCell>
        <mxCell id="ba7aPMstpUIJZf1xL_y9-39" value="&quot;35&quot; +" style="text;html=1;align=center;verticalAlign=middle;whiteSpace=wrap;rounded=0;fontSize=14;" vertex="1" parent="1">
          <mxGeometry x="480" y="430" width="60" height="30" as="geometry" />
        </mxCell>
      </root>
    </mxGraphModel>
  </diagram>
</mxfile>
